<svg xmlns="http://www.w3.org/2000/svg" viewBox="0 0 32 32" fill="none">
  <!-- Grid lines -->
  <line x1="11" y1="3" x2="11" y2="29" stroke="#94a3b8" stroke-width="1.5" stroke-linecap="round"/>
  <line x1="21" y1="3" x2="21" y2="29" stroke="#94a3b8" stroke-width="1.5" stroke-linecap="round"/>
  <line x1="3" y1="11" x2="29" y2="11" stroke="#94a3b8" stroke-width="1.5" stroke-linecap="round"/>
  <line x1="3" y1="21" x2="29" y2="21" stroke="#94a3b8" stroke-width="1.5" stroke-linecap="round"/>

  <!-- Row 0: X O X -->
  <!-- X top-left (4.5–9.5, 4.5–9.5) -->
  <line x1="4.5" y1="4.5" x2="9.5" y2="9.5" stroke="#2563eb" stroke-width="1.8" stroke-linecap="round"/>
  <line x1="9.5" y1="4.5" x2="4.5" y2="9.5" stroke="#2563eb" stroke-width="1.8" stroke-linecap="round"/>
  <!-- O top-center -->
  <circle cx="16" cy="7" r="2" stroke="#ef4444" stroke-width="1.8"/>
  <!-- X top-right (22.5–27.5, 4.5–9.5) -->
  <line x1="22.5" y1="4.5" x2="27.5" y2="9.5" stroke="#2563eb" stroke-width="1.8" stroke-linecap="round"/>
  <line x1="27.5" y1="4.5" x2="22.5" y2="9.5" stroke="#2563eb" stroke-width="1.8" stroke-linecap="round"/>

  <!-- Row 1: O X O -->
  <!-- O middle-left -->
  <circle cx="7" cy="16" r="2" stroke="#ef4444" stroke-width="1.8"/>
  <!-- X center (12.5–19.5, 12.5–19.5) -->
  <line x1="13" y1="13" x2="19" y2="19" stroke="#2563eb" stroke-width="1.8" stroke-linecap="round"/>
  <line x1="19" y1="13" x2="13" y2="19" stroke="#2563eb" stroke-width="1.8" stroke-linecap="round"/>
  <!-- O middle-right -->
  <circle cx="25" cy="16" r="2" stroke="#ef4444" stroke-width="1.8"/>

  <!-- Row 2: X O X -->
  <!-- X bottom-left (4.5–9.5, 22.5–27.5) -->
  <line x1="4.5" y1="22.5" x2="9.5" y2="27.5" stroke="#2563eb" stroke-width="1.8" stroke-linecap="round"/>
  <line x1="9.5" y1="22.5" x2="4.5" y2="27.5" stroke="#2563eb" stroke-width="1.8" stroke-linecap="round"/>
  <!-- O bottom-center -->
  <circle cx="16" cy="25" r="2" stroke="#ef4444" stroke-width="1.8"/>
  <!-- X bottom-right (22.5–27.5, 22.5–27.5) -->
  <line x1="22.5" y1="22.5" x2="27.5" y2="27.5" stroke="#2563eb" stroke-width="1.8" stroke-linecap="round"/>
  <line x1="27.5" y1="22.5" x2="22.5" y2="27.5" stroke="#2563eb" stroke-width="1.8" stroke-linecap="round"/>
</svg>
